# xmcd CD database file
#
# Track frame offsets:
#	150
#	10717
#	37475
#	57865
#	82560
#	106882
#	129817
#	150410
#	158747
#	181242
#	198907
#
# Disc length: 2798 seconds
#
# Revision: 0
# Processed by: cddbd v1.5.1PL2 Copyright (c) Steve Scherf et al.
# Submitted via: CD2WAV32(JP) R3.22
#
DISCID=740aec0b
DTITLE=あんぜんバンド - あんぜんバンドのふしぎなたび＋２
DYEAR=2002
DGENRE=Rock
TTITLE0=果てのない旅
TTITLE1=時間の渦
TTITLE2=夕陽の中へ
TTITLE3=闇の淵
TTITLE4=おはよう
TTITLE5=ＡＮＯＴＨＥＲ TIME
TTITLE6=貘
TTITLE7=お祭り最高
TTITLE8=偉大なる可能性
TTITLE9=終わりなき日々
TTITLE10=新宿警察のテーマ
EXTD=
EXTT0=
EXTT1=
EXTT2=
EXTT3=
EXTT4=
EXTT5=
EXTT6=
EXTT7=
EXTT8=
EXTT9=
EXTT10=
PLAYORDER=
